#!OML:ASF E:/inclinewalkrobotboard/Project1/Captureday1/Session1/subject1.ASF
:FULLY-SPECIFIED
:DEGREES
176
root 0 0 0 15.475985036176219 42.47473141618289 -0.3501282545718798
lowerback -10.65864039733682 -4.518212183253089 -4.536128938503464
upperback -11.615755400270844 -5.610567879096448 8.892526686666056
thorax -5.437770570495694 -2.10742318034454 12.152362186504746
lowerneck -3.001767990657066 -9.812831611768626 -8.42861897142555
upperneck 32.78753283357907 -12.288580542174762 0.0873829779958295
head 11.90238877517059 -6.370203807847756 -0.1736463194294644
rclavicle -4.6402695445723404E-15 4.3183548382892174E-15
rhumerus 161.62371277246473 6.207507663142135 -195.02433606143052
rradius 16.448095675981044
rwrist 83.55389153537357
rhand -17.12615667575659 7.977474737577653
rfingers 7.125020000000012
rthumb 9.066859866350446 -21.9165216020087
lclavicle 2.109483203071667E-15 -4.002049771308826E-15
lhumerus 85.1772516563916 32.96866291142273 16.534302727470724
lradius 49.14703046787605
lwrist -17.850597611214358
lhand -8.915785298097248 12.197811824359407
lfingers 7.125019999999984
lthumb 16.985146563805337 41.208986195086254
rfemur 156.56380637684595 -212.2407762549989 -184.4853487378401
rtibia 60.21462073484891
rfoot -59.03481169808517 -22.189160515357493
rtoes 60.81217560424511
lfemur -88.82588594321109 22.712467548424843 -52.80253568197422
ltibia 75.5701208168025
lfoot -12.830159347335318 32.694039117855326
ltoes 9.351346871652634
177
root 0 0 0 15.446586109350081 42.481187612988805 -0.33465855406586975
lowerback -10.646084268128373 -4.520228205393673 -4.538980424483222
upperback -11.609582867039038 -5.612983450596439 8.89110135091934
thorax -5.438650895094009 -2.1080216524719892 12.152295152613284
lowerneck -3.001330219658783 -9.81213623846698 -8.427120534585868
upperneck 32.78823117233162 -12.286932752276066 0.08518377901060115
head 11.902412974161047 -6.369681144386813 -0.17450291958836917
rclavicle -4.5434176124422215E-15 4.351588866885282E-15
rhumerus 161.51056949814364 6.245029129292085 -195.08299008485204
rradius 16.42655831650761
rwrist 83.54970827875533
rhand -17.122530995863773 7.985178106250729
rfingers 7.125020000000012
rthumb 9.070513479457318 -21.90695546001536
lclavicle 2.265101688813857E-15 -3.950448151141568E-15
lhumerus 85.10772627056146 32.9225330051934 16.488568039987452
lradius 49.139299037143715
lwrist -17.881512036453856
lhand -8.933835997270252 12.227393115588798
lfingers 7.125019999999984
lthumb 16.96794587127185 41.239787277788324
rfemur 156.52133605344315 -212.21648190780738 -184.45364944294602
rtibia 60.0429293107251
rfoot -59.51407959842848 -21.993177021746426
rtoes 60.7408824229763
lfemur -88.85512098257642 22.71387763090784 -52.87115166231601
ltibia 75.543874252145
lfoot -12.630245980034076 32.71547014545706
ltoes 9.304965916340484
178
root 0 0 0 15.4152319191619 42.48190648472489 -0.31717757368252286
lowerback -10.632582739368994 -4.5215665681626795 -4.54230272461276
upperback -11.602685738225887 -5.6144912753912966 8.888536099400193
thorax -5.439575659660944 -2.10806453843513 12.151188461677119
lowerneck -3.0019790168422196 -9.811180533771404 -8.425028397078595
upperneck 32.78759916177116 -12.285011892941975 0.08291643854306763
head 11.902011045565189 -6.368992011902856 -0.1753969023193569
rclavicle -4.511486360339973E-15 4.383886054435529E-15
rhumerus 161.41927133489662 6.290395969389234 -195.1573053564984
rradius 16.405506727589504
rwrist 83.55587492224734
rhand -17.12225467677009 7.995445173604907
rfingers 7.125020000000012
rthumb 9.0708881955025 -21.89514687453546
lclavicle 2.342475681875559E-15 -3.8909667393751425E-15
lhumerus 85.06931053274619 32.92034754082104 16.474387890114123
lradius 49.08833823130084
lwrist -17.91158410957581
lhand -8.962707934594842 12.2569075899275
lfingers 7.125019999999984
lthumb 16.940170490506453 41.27379938647617
rfemur 156.46348673453446 -212.16122485676732 -184.41252507879332
rtibia 59.84418357138814
rfoot -59.97890135194278 -21.805088663291045
rtoes 60.6830956136955
lfemur -88.88110828544052 22.714911517190046 -52.923620117680656
ltibia 75.52017958965995
lfoot -12.419325582675334 32.721727122686225
ltoes 9.248009708153303
179
root 0 0 0 15.382077339597766 42.482502780789915 -0.29827171311571377
lowerback -10.618032638988105 -4.522703547621193 -4.545992595026736
upperback -11.595200697995502 -5.615701242447859 8.885480615061029
thorax -5.440553233614516 -2.1078843765336135 12.14971780319615
lowerneck -3.002847271054354 -9.810058132398957 -8.422471404567093
upperneck 32.78698362541275 -12.282817600294697 0.08009554327023727
head 11.901588435342427 -6.368193416757018 -0.17649026575754156
rclavicle -4.487894004642775E-15 4.416319464866261E-15
rhumerus 161.32881427878556 6.33159226172323 -195.2308734599579
rradius 16.377677757075624
rwrist 83.57861899813048
rhand -17.122872733570468 8.004971615877668
rfingers 7.125020000000012
rthumb 9.070335733228257 -21.884490626884304
lclavicle 2.413047767317296E-15 -3.824195377279436E-15
lhumerus 85.04389752309939 32.930227628330385 16.465461467788643
lradius 49.01836485006069
lwrist -17.944851773447013
lhand -9.000484380412006 12.290854124162015
lfingers 7.125019999999984
lthumb 16.903818822164855 41.31399116958988
rfemur 156.3884731702116 -212.08679047534983 -184.3618518295835
rtibia 59.61845338255788
rfoot -60.47849802691062 -21.604368010867983
rtoes 60.6357517304036
lfemur -88.90561402347315 22.715855551446747 -52.97350997567584
ltibia 75.49844535968161
lfoot -12.201508362016224 32.72316013001652
ltoes 9.183514386349184
